<?xml version="1.0" encoding="iso-8859-1"?>
<!-- Generator: Adobe Illustrator 19.0.0, SVG Export Plug-In . SVG Version: 6.00 Build 0)  -->
<svg version="1.1" id="Capa_1" xmlns="http://www.w3.org/2000/svg" xmlns:xlink="http://www.w3.org/1999/xlink" x="0px" y="0px"
	 viewBox="0 0 512.002 512.002" style="enable-background:new 0 0 512.002 512.002;" xml:space="preserve">
<g>
	<g>
		<path d="M432.492,184.625l-49.948-49.948V56.286c0-4.794-3.886-8.681-8.681-8.681h-47.165c-4.795,0-8.681,3.887-8.681,8.681
			v13.865l-28.997-28.997c-3.391-3.39-8.887-3.39-12.277,0L133.272,184.626c-3.39,3.39-3.39,8.887,0,12.276
			c3.39,3.39,8.886,3.39,12.277,0l27.203-27.203v49.557c0,4.794,3.886,8.681,8.681,8.681s8.681-3.887,8.681-8.681v-66.918
			l92.768-92.769l37.669,37.669c0.006,0.006,55.1,55.1,55.1,55.1v102.574c0,4.794,3.886,8.681,8.681,8.681
			c4.795,0,8.681-3.887,8.681-8.681V169.7l27.201,27.201c1.696,1.695,3.918,2.543,6.139,2.543s4.443-0.847,6.139-2.543
			C435.883,193.511,435.883,188.014,432.492,184.625z M365.183,117.317l-29.803-29.803V64.967h29.803V117.317z"/>
	</g>
</g>
<g>
	<g>
		<path d="M316.013,179.009h-66.26c-4.795,0-8.681,3.887-8.681,8.681v46.296c0,4.794,3.886,8.681,8.681,8.681
			s8.681-3.887,8.681-8.681v-37.615h48.898v48.031c0,4.795,3.886,8.681,8.681,8.681c4.795,0,8.681-3.887,8.681-8.681V187.69
			C324.694,182.896,320.808,179.009,316.013,179.009z"/>
	</g>
</g>
<g>
	<g>
		<path d="M505.744,310.364c-10.644-16.684-31.933-22.853-49.705-14.916c-2.73-10.688-9.853-20.052-19.985-25.389
			c-5.705-3.005-12.104-4.594-18.502-4.594c-13.979,0-26.676,7.121-33.967,19.051l-46.794,76.685l-0.328,0.182
			c-7.286,4.027-15.818,5.478-24.025,4.09l-114.516-19.398c-7.908-1.339-13.534-8.646-12.811-16.635
			c0.391-4.318,2.493-8.16,5.92-10.818c3.426-2.658,7.668-3.74,11.951-3.043l99.423,16.157c17.92,2.913,35.366-8.607,39.738-26.218
			c2.281-9.193,0.747-18.662-4.323-26.662c-5.071-8.002-12.977-13.432-22.264-15.294l-158.721-31.82
			c-6.404-1.284-12.962-1.995-19.49-2.115c-28.943-0.527-56.744,14.562-72.614,39.387c-15.359,24.025-36.314,44.625-60.6,59.57
			c-4.082,2.513-5.357,7.86-2.844,11.943c2.514,4.083,7.859,5.357,11.943,2.844c26.501-16.309,49.368-38.786,66.13-65.005
			c12.429-19.442,33.992-31.39,56.502-31.39c0.387,0,0.778,0.003,1.164,0.01c5.492,0.101,11.009,0.699,16.397,1.779l158.72,31.82
			c4.594,0.921,8.505,3.608,11.012,7.564c2.508,3.956,3.266,8.639,2.139,13.187c-2.212,8.91-11.051,14.734-20.102,13.263
			l-99.423-16.157c-8.963-1.457-18.207,0.899-25.377,6.461c-7.169,5.562-11.752,13.933-12.571,22.971
			c-1.536,16.96,10.414,32.475,27.204,35.319l114.516,19.398c12.063,2.044,24.613-0.091,35.326-6.014l116.533-64.427
			c10.318-5.704,23.367-2.388,29.71,7.552c3.227,5.058,4.284,11.068,2.976,16.922c-1.307,5.856-4.82,10.844-9.892,14.049
			L333.591,445.85c-13.371,8.449-29.344,11.803-44.986,9.439l-89.993-13.596c-4.749-0.712-9.164,2.548-9.88,7.287
			c-0.715,4.74,2.546,9.164,7.287,9.88l89.993,13.596c4.132,0.624,8.283,0.933,12.419,0.933c15.645,0,31.071-4.416,44.436-12.862
			l150.604-95.177c9.003-5.69,15.24-14.548,17.561-24.943C513.354,330.013,511.474,319.343,505.744,310.364z M367.487,344.231
			l30.917-50.667c4.109-6.724,11.267-10.738,19.149-10.738c3.592,0,7.191,0.896,10.411,2.593
			c7.091,3.735,11.551,10.974,11.913,18.79L367.487,344.231z"/>
	</g>
</g>
<g>
	<g>
		<path d="M169.241,437.255l-58.511-8.839c-11.288-1.706-22.757,0.81-32.294,7.084l-15.015,9.874
			c-4.006,2.634-5.117,8.017-2.484,12.023c1.668,2.536,4.438,3.912,7.261,3.912c1.637,0,3.293-0.462,4.762-1.429l15.015-9.874
			c5.954-3.916,13.109-5.487,20.162-4.421l58.511,8.839c4.735,0.712,9.164-2.546,9.88-7.286
			C177.244,442.395,173.982,437.972,169.241,437.255z"/>
	</g>
</g>
<g>
</g>
<g>
</g>
<g>
</g>
<g>
</g>
<g>
</g>
<g>
</g>
<g>
</g>
<g>
</g>
<g>
</g>
<g>
</g>
<g>
</g>
<g>
</g>
<g>
</g>
<g>
</g>
<g>
</g>
</svg>
